<?xml version="1.0" encoding="UTF-8"?>
<svg xmlns="http://www.w3.org/2000/svg" xmlns:xlink="http://www.w3.org/1999/xlink" version="1.1" viewBox="0 0 1261.6 1237.8">
  <!-- Generator: Adobe Illustrator 30.1.0, SVG Export Plug-In . SVG Version: 2.1.1 Build 136)  -->
  <defs>
    <style>
      .st0 {
        fill: url(#linear-gradient2);
      }

      .st1 {
        fill: url(#linear-gradient1);
      }

      .st2 {
        fill: url(#linear-gradient);
      }

      .st3 {
        fill: #030712;
      }

      .st4 {
        fill: #f28b49;
      }

      .st5 {
        display: none;
      }
    </style>
    <linearGradient id="linear-gradient" x1="366.8" y1="909.2" x2="1232.6" y2="636.4" gradientUnits="userSpaceOnUse">
      <stop offset="0" stop-color="#c2852d"/>
      <stop offset=".1" stop-color="#a95990"/>
      <stop offset=".2" stop-color="#9333ea"/>
    </linearGradient>
    <linearGradient id="linear-gradient1" x1="466" y1="615.5" x2="56.3" y2="1258.6" gradientUnits="userSpaceOnUse">
      <stop offset="0" stop-color="#db2777"/>
      <stop offset="0" stop-color="#df386f"/>
      <stop offset="0" stop-color="#e85861"/>
      <stop offset=".1" stop-color="#ef7355"/>
      <stop offset=".2" stop-color="#f5894b"/>
      <stop offset=".3" stop-color="#f99a44"/>
      <stop offset=".4" stop-color="#fca63e"/>
      <stop offset=".5" stop-color="#fead3b"/>
      <stop offset=".9" stop-color="#ffaf3b"/>
    </linearGradient>
    <linearGradient id="linear-gradient2" x1="833.9" y1="362.5" x2="1324.9" y2="-98.4" gradientUnits="userSpaceOnUse">
      <stop offset="0" stop-color="#db2777"/>
      <stop offset="0" stop-color="#d72675"/>
      <stop offset=".1" stop-color="#cc246f"/>
      <stop offset=".2" stop-color="#b92167"/>
      <stop offset=".3" stop-color="#a01d5a"/>
      <stop offset=".3" stop-color="#8e1b52"/>
    </linearGradient>
  </defs>
  <g id="Layer_2" class="st5">
    <rect class="st3" x="-331.5" y="-314.4" width="1921.5" height="1917.6"/>
  </g>
  <g id="Layer_1">
    <g>
      <path class="st4" d="M498.6,1206.7"/>
      <path class="st2" d="M1235.1,452.8c-.8.5-2.8,3.5-3.7,5.7-17.1,40.7-49.4,66.9-87,80.1,13.2,16.4,12,40.5-3.5,55.5l-70.5,68c-16.4,15.8-42.5,15.4-58.3-1l-24-24.8c-15.8-16.4-15.4-42.5,1-58.3l37.7-36.4c-14.8-4.2-29-10-41.9-17.5l-195.1-114s8.5,5.9,26.3,26.9c24.7,29.1,23.1,69.2-4,95.3l-89.1,85.7-188.2,181.8c-7.9,7.7-16.8,15-26.4,19.5-41.5,19.5-89,15.4-127.8-7.4-13.7-8-25.8-32.6-25.8-32.6-27.9,24.3-6.8,459.6,192.9,434.5,30.8-3.9,46.3-2.6,119.3-67.8l537.7-522.2c45.4-44.6,64.8-120.3,30.5-171.2ZM690.1,1029.4l-70.5,68c-16.4,15.8-42.5,15.4-58.3-1l-24-24.8c-15.8-16.4-15.4-42.5,1-58.3l70.5-68c16.4-15.8,42.5-15.4,58.3,1l24,24.8c15.8,16.4,15.4,42.5-1,58.3ZM840.3,884.3l-70.5,68c-16.4,15.8-42.5,15.4-58.3-1l-24-24.8c-15.8-16.4-15.4-42.5,1-58.3l70.5-68c16.4-15.8,42.5-15.4,58.3,1l24,24.8c15.8,16.4,15.4,42.5-1,58.3ZM990.6,739.2l-70.5,68c-16.4,15.8-42.5,15.4-58.3-1l-24-24.8c-15.8-16.4-15.4-42.5,1-58.3l70.5-68c16.4-15.8,42.5-15.4,58.3,1l24,24.8c15.8,16.4,15.4,42.5-1,58.3Z"/>
      <path class="st1" d="M414.5,683.3c-153.4,188.4,33.3,526.7,104,530.6-19.1,7.6-89.1-28.7-112.1-50.2-23.9-22.4-46.2-45.3-68.7-69l-31.1-32.6-114.2-115.9-51.6-52.3-72.1-73.2c-69.1-70.2-77-177.7-3.6-246.7l106.2-99.9,23.2-21.7,220.9-206.3c14.1-13.2,27.2-24.9,41.1-36.2,4.8,4,10.1,7.5,16,11l79.2,47.2,187,110.7c-16.6,17.9-34.5,35.2-53.2,52.4l-37.1,34.1-90.6,83.7-84.5,78.9-58.8,55.4Z"/>
      <path class="st0" d="M1227.5,443.2c4.1,4.6,9.7,9.7,9.3,16.9-6.3,104.7-168.3,112.4-247.6,66.4l-145.6-84.4-34.7-19.1c-24.6-13.5-47.4-31.7-73.3-42.4l-187-110.7-79.2-47.2c-5.9-3.5-11.2-7-16-11l162.2-152.8c61.3-57.2,162.3-66.1,224.7-5l387.3,389.1Z"/>
    </g>
  </g>
</svg>